<svg xmlns="http://www.w3.org/2000/svg" viewBox="0 0 1366 599" preserveAspectRatio="xMidYMid" width="1366" height="599" xmlns:xlink="http://www.w3.org/1999/xlink" style="shape-rendering:auto;display:block;background-position-x:0%;background-position-y:0%;background-size:auto;background-origin:padding-box;background-clip:border-box;background:scroll rgb(255, 255, 255) none  repeat;width:1366px;height:599px;;animation:none"><g><linearGradient y2="0" y1="0" x2="1" x1="0" id="lg-o578w6yh81n"><stop offset="0" stop-color="#0099e5"></stop>

  
<stop offset="1" stop-color="#ff4c4c"></stop></linearGradient>
<path opacity="0.4" fill="url(#lg-o578w6yh81n)" d="M 0 0 L 0 405.33 Q 136.6 393.31 273.2 373.3 T 546.4 285.6 T 819.6 258.29 T 1092.8 299.36 T 1366 237.37 L 1366 0 Z" style="fill:url('#lg-o578w6yh81n');opacity:0.4;;animation:none"></path>
<path opacity="0.4" fill="url(#lg-o578w6yh81n)" d="M 0 0 L 0 374.492 Q 136.6 367.79 273.2 342.967 T 546.4 299.495 T 819.6 244.766 T 1092.8 195.651 T 1366 195.975 L 1366 0 Z" style="fill:url('#lg-o578w6yh81n');opacity:0.4;;animation:none"></path>
<path opacity="0.4" fill="url(#lg-o578w6yh81n)" d="M 0 0 L 0 383.986 Q 136.6 426.102 273.2 401.882 T 546.4 268.235 T 819.6 292.461 T 1092.8 226.788 T 1366 184.921 L 1366 0 Z" style="fill:url('#lg-o578w6yh81n');opacity:0.4;;animation:none"></path>
<path opacity="0.4" fill="url(#lg-o578w6yh81n)" d="M 0 0 L 0 409.754 Q 136.6 359.588 273.2 334.867 T 546.4 349.855 T 819.6 272.662 T 1092.8 296.975 T 1366 233.87 L 1366 0 Z" style="fill:url('#lg-o578w6yh81n');opacity:0.4;;animation:none"></path>
<path opacity="0.4" fill="url(#lg-o578w6yh81n)" d="M 0 0 L 0 428.844 Q 136.6 371.602 273.2 350.258 T 546.4 295.013 T 819.6 303.111 T 1092.8 190.962 T 1366 150.096 L 1366 0 Z" style="fill:url('#lg-o578w6yh81n');opacity:0.4;;animation:none"></path>
<g></g></g><!-- [ldio] generated by https://loading.io --></svg>